<svg xmlns="http://www.w3.org/2000/svg" xmlns:xlink="http://www.w3.org/1999/xlink" width="128" height="128" viewBox="0 0 128 128">
  <defs>
    <clipPath id="clip-path">
      <rect id="Rectángulo_459899" data-name="Rectángulo 459899" width="128" height="128" fill="none"/>
    </clipPath>
    <clipPath id="clip-path-2">
      <rect id="Rectángulo_465932" data-name="Rectángulo 465932" width="61.796" height="61.841" fill="#12263f"/>
    </clipPath>
  </defs>
  <g id="Grupo_1212849" data-name="Grupo 1212849" transform="translate(6435.89 1863.92)">
    <g id="Grupo_1212423" data-name="Grupo 1212423" transform="translate(-6435.89 -1863.92)">
      <g id="Grupo_1188515" data-name="Grupo 1188515" clip-path="url(#clip-path)">
        <path id="Trazado_1033015" data-name="Trazado 1033015" d="M128,64A64,64,0,1,1,64,0a64,64,0,0,1,64,64" fill="#fff"/>
        <path id="Trazado_1033016" data-name="Trazado 1033016" d="M154.441,185.937l.625-.59c-.045-.02-.215.119-.625.59" transform="translate(-131.184 -157.435)" fill="#e4cbc1"/>
        <path id="Trazado_1033017" data-name="Trazado 1033017" d="M374.691,757.713l-.2.008a.74.74,0,0,0,.2-.008" transform="translate(-318.095 -643.61)" fill="#e4cbc1"/>
        <path id="Trazado_1033018" data-name="Trazado 1033018" d="M342.621,99.876l-.041.008-.2.065Z" transform="translate(-290.823 -84.836)" fill="#e4cbc1"/>
        <path id="Trazado_1033019" data-name="Trazado 1033019" d="M81.364,97.171a46.672,46.672,0,0,1,3.779-5.711c1.133-1.6,2.359-2.8,3.473-4.1.6-.615,1.228-1.2,1.858-1.825l.97-.96,1.1-.927a47.547,47.547,0,0,1,5.5-4.2,46.375,46.375,0,0,1,14.737-5.883c2.322-.985,6.71-.887,9.606-1.239l1.123.269a11.86,11.86,0,0,1,3.182.125l-.069.054c1.5.046,3.178.288,3.916.385l-.072.049,1.79.338-.325.025c.647.092,1.3.178,1.95.3l1.9.5c.625.176,1.248.337,1.843.538l1.707.68-.095-.313c.586.256,1.127.482,1.636.685s.956.45,1.4.64c.875.4,1.663.733,2.437,1.063.743.389,1.473.772,2.258,1.217.39.226.8.452,1.22.731.4.3.829.621,1.28.979l-.087.017c.647.335,1.251.674,1.819,1.016.55.366,1.04.768,1.521,1.149s.933.772,1.375,1.157.817.833,1.223,1.245c1.618,1.661,3.114,3.436,5.222,5.6-.519-.547.09.338,0,.328l1.3,1.6c.419.52.765,1.051,1.108,1.479.671.868,1.2,1.425,1.432,1.308,1.071,1.738.7,1.516.678,1.837.172-.117,1.176,1.354,1.91,2.769-.137-.2-.255-.419-.406-.615.7,1.351,1.393,2.708,2.057,4.079.025-.338,0-.658.006-.99.887,2.273-.217.771.773,2.875l.313-.159a19.563,19.563,0,0,1,.732,2.189c.165.694.3,1.349.426,2s.257,1.3.371,1.981c.091.692.2,1.416.339,2.21a73.426,73.426,0,0,1,1.768,9.989,51.748,51.748,0,0,1-.063,10.205l-.136,1.264-.068.631-.127.619-.512,2.466a17.435,17.435,0,0,1-.677,2.4c-.26.785-.5,1.577-.779,2.345l-1.018,2.217a17.671,17.671,0,0,1-1.094,2.137,29.664,29.664,0,0,1-2.668,3.842l-.541.266c-.411-.047-1.68,2.982-2.322,3.054-.289.381-.56.782-.872,1.147-.34.231-1,.763-.546.208a16.966,16.966,0,0,0-1.6,1.672c-.4.26-.832.482-1.247.718a74.424,74.424,0,0,1-6.176,4.184,35.986,35.986,0,0,1-6.974,3.266,93.37,93.37,0,0,1-12.7,2.748,98.083,98.083,0,0,1-13.538.888,49.735,49.735,0,0,1-15.981-2.551A67.158,67.158,0,0,1,89.2,160.415a3.592,3.592,0,0,0-1.043-.6c-.607-.5-1.191-1.018-1.788-1.524l-.892-.764-.814-.843L83.038,155l-1.448-1.839-.312-.392-.37-.462-.431-.661a34.528,34.528,0,0,1-2.393-4.01,21.288,21.288,0,0,1-1.264-2.643c-.367-.945-.809-1.89-1.144-2.87-.6-1.985-1.275-3.931-1.646-5.694-.817-3.5-1.184-6.012-1.59-5.364a10.1,10.1,0,0,0-.38,3.632,36.74,36.74,0,0,0,.261,4.12c.111.827.29,1.722.463,2.705l.285,1.536c.1.534.292,1.062.445,1.627l-.169-.205L74,146.362l.315.882c.12.281.257.548.381.813.513,1.057.982,2.038,1.479,2.94a23.866,23.866,0,0,0,3.582,4.589,2,2,0,0,0,.442.92c.138.2.3.413.48.634l.634.637c.893.855,1.832,1.78,2.277,2.258l-.123-.049c1.44.94,2.657,2.2,4.065,3.215a21.712,21.712,0,0,0,2.08,1.531,20.226,20.226,0,0,0,2.212,1.179,1.586,1.586,0,0,1-.914-.312c.528.279,1.088.616,1.669.891l1.672.779a6.405,6.405,0,0,1,1.806,1.055,58.146,58.146,0,0,0,8.915,2.859,38.937,38.937,0,0,0,4.323.8,21.527,21.527,0,0,0,3.393.24l-.255.051c2.064-.038,2.637.242,4.926.254.122.048.282.081.255.1,2.224-.154,6.453.16,8.246-.044l.121.2c1.471-.063,2.943-.144,4.411-.283-.55.035-1.1.057-1.651.072.528-.57,3.368.143,6.519-.667,3.013-.374,5.76-2.2,8.767-2.816,1.338-.666-1.123.779.93-.058.158.256-.934.483-.32.533,2.031-.8,3.509-.855,5.925-2.117l.192.158c3.044-1.81,6.1-2.831,7.832-4.521a12.491,12.491,0,0,1,2.589-1.686,7.231,7.231,0,0,0,2.446-2.076l1.289-.82c1.182-1.163.579-1.085,1.894-2.356.081.221,1.608-1.677,1.065-.73a25.026,25.026,0,0,0,3.654-5.365l.793-1.559.736-1.663c.517-1.127,1.131-2.276,1.628-3.56a11.286,11.286,0,0,1,.554-2.482,9.248,9.248,0,0,0,.349-2.272,16.21,16.21,0,0,0,.622-2.336c.152-.953.277-1.513.255.045,0,.268-.128.724-.177.682l.135.4a8.52,8.52,0,0,0,.506-2.205c.091-.724.141-1.434.179-2.142a18.33,18.33,0,0,0,0-2.137c-.016-.721-.015-1.456.03-2.224-.107.909-.136,2.118-.254,1.3.024-.946.144-1.9.088-2.841l.208.59-.069-4.248-.2.6a16.372,16.372,0,0,0-.374-5.124c-.338-1.012-.031,1.981-.416-.161-.2-1.358-.356-3.084-.717-4.868a47.607,47.607,0,0,0-1.326-5.338c-.14.392-.431-.509-.79-1.414l.174-.182c-.748-1.716-.836-2.047-.821-2.419-.007-.362-.007-.729-.825-2.405l.267.242c-.262-.244-.534-.481-.824-.708a6.605,6.605,0,0,1-1.153-2.355,5.909,5.909,0,0,0-1.474-2.5c.758,1.259-.091.834-.892-.773l.412.289a17.513,17.513,0,0,1-1.063-1.687c.382.462.457.091-.4-1.112l.772.684L165.6,92.049A18.783,18.783,0,0,0,163.509,89c-.376-.488-.727-.946-1-1.338a5.175,5.175,0,0,1-.606-.9s-.743-.9-1.609-1.864a12.043,12.043,0,0,0-1.381-1.336,6.591,6.591,0,0,0-1.09-.81c.821.5-.989-1.34-.3-1.013-.495-.363-1.516-1.015-2.5-1.751-.491-.366-.978-.748-1.4-1.107s-.833-.633-1.091-.89l.241.13c-4.218-3.29-7.918-4.417-12.214-6.37.112.317-2.184-.685-1.71-.156-2.377-.551-4.454-1.343-6.252-1.734a13.7,13.7,0,0,0-2.393-.462,4.062,4.062,0,0,0-1.764.222c-2.186-.246-2.573-.514-3.715-.623l.531-.029-2.636-.075c-.744,0-1.38.051-1.982.066-1.2.058-2.278.029-3.809.226a11.52,11.52,0,0,0-1.761.507,19.819,19.819,0,0,1-2.645.594c.836-.354-.258-.107-1.266.089.637-.154.826-.261-.529-.127-.174.095-.456.176-.712.289-.014-.011-.069-.008-.047-.035-1.639.529-1.333.5-.561.314-.031.039.043.056.292.041a27.084,27.084,0,0,0-3.085.739c-.993.322-1.784.633-1.945.51A39.849,39.849,0,0,0,93.325,78.8c-.489.15.229-.557,1.2-1.347L92.1,79.3c-.129-.2,1.332-1.145,2.065-1.738a23.017,23.017,0,0,0-2.311,1.553c-.7.628-1.394,1.3-2.1,1.976-.724.657-1.373,1.412-2.064,2.155s-1.47,1.433-2.187,2.216l-.418.8-.185.174a4.4,4.4,0,0,1-.788,1.37c-.537.337-.39-.359-1.6,1.363a15.244,15.244,0,0,0-1.861,2.669l-1.695,3.217c.627-.986.539-.6.34-.138a21.883,21.883,0,0,0-1.241,2.11l-.3-.041c.213-.121-.039.517-.352,1.233a11.516,11.516,0,0,0-.648,1.74c-.422.46.467-1.565.487-1.848-.9,1.893-1.062,2.4-1.285,2.87-.185.49-.478.937-1.159,2.919-.567,2.169.389-.287.255.8-.673,1.844-.967,3.743-1.775,5.846l.442-.615c-.41,1.784-.623,3.233-.95,4.5-.267,1.282-.49,2.422-.822,3.621-.138,1.7-.086,3.229-.119,4.563.031,1.339.145,2.5.214,3.5a20.484,20.484,0,0,0,.348,2.542c.127.7.243,1.26.35,1.7.443,1.757.753,1.614.887.617a39.933,39.933,0,0,0,.33-4.258c.147-1.525.229-2.806.229-2.806a116.086,116.086,0,0,1,2.145-12.969l.788-3.08c.294-1.051.671-2.117,1.03-3.257a53.709,53.709,0,0,1,3.2-7.432" transform="translate(-61.023 -58.519)" fill="#3a552a"/>
      </g>
    </g>
    <g id="Grupo_1212714" data-name="Grupo 1212714" transform="translate(-6403.288 -1831)">
      <g id="Grupo_1212713" data-name="Grupo 1212713" clip-path="url(#clip-path-2)">
        <path id="Trazado_1274349" data-name="Trazado 1274349" d="M95.692,112.225a6.943,6.943,0,0,1-1.051-2.247l-1.952-.817a1.62,1.62,0,0,0-1.726.042c-.41.257-1.292.654-1.723.233l-2.708-2.65c-.774-.758.234-1.636.452-2.828-.267-.888-.679-1.71-1.028-2.591-.944-.712-2.382-.522-2.368-1.783l.041-3.73c.01-.862,1.643-.869,2.363-1.575L87.049,91.7c-.167-.727-.913-1.479-.8-2.348l3.277-3.3c.858-.088,1.491.751,2.271.729a7.633,7.633,0,0,0,2.745-1.067c.56-.593.5-1.681,1.2-2.194l4.138-.045a1.01,1.01,0,0,1,.927.678l.683,1.7a13.241,13.241,0,0,1,2.589,1.065l2.37-.9,3.4,3.42-.873,2.375a14.128,14.128,0,0,1,1.057,2.584l1.962.842c.385.165.447.732.41,1.164-.112,1.293.226,2.606-.175,3.828-.295.6-1.558.548-2,1.014l-1.3,2.684.762,1.751a1.041,1.041,0,0,1-.24,1.117l-2.844,2.673c-.673.632-1.756-.587-2.386-.607l-2.688.957-1.172,2.375a28.708,28.708,0,0,1-4.672.021m3.438-2.079.887-1.9a17.283,17.283,0,0,0,3.834-1.59l2.167.756,1.584-1.582-.837-2.083a15.027,15.027,0,0,0,1.631-3.925l1.991-.831-.048-2.338c-.566-.242-1.69-.344-1.933-.982-.486-1.272-.954-2.443-1.539-3.668-.147-.638.46-1.436.726-2.021l-1.667-1.7a8.162,8.162,0,0,1-2.077.826,17.83,17.83,0,0,0-3.627-1.621c-.653-.276-.746-1.343-.988-1.963l-2.359-.06a8.879,8.879,0,0,1-.944,2.05,18.05,18.05,0,0,0-3.964,1.614l-1.913-.84-1.587,1.571.792,2.024a18.6,18.6,0,0,0-1.628,3.966,8.968,8.968,0,0,1-2.032.841l-.006,2.275,2.05.928a18.563,18.563,0,0,0,1.47,3.69c.342.728-.487,1.375-.534,2.03s1.045,1.681,1.66,1.69c.566.008,1.351-.81,1.861-.6,1.34.605,2.5,1.1,3.858,1.581.54.308.477,1.475.921,1.851a3,3,0,0,0,2.249.009" transform="translate(-66.98 -66.893)" fill="#12263f"/>
        <path id="Trazado_1274350" data-name="Trazado 1274350" d="M227.9,19.567l-18.042.011a1.178,1.178,0,0,1-.93-.363,1.085,1.085,0,0,1-.226-.975,10.267,10.267,0,0,1,6.521-8.257,5.646,5.646,0,1,1,7.744-8.189A5.689,5.689,0,0,1,222.5,10a10.206,10.206,0,0,1,6.477,8.146,1.3,1.3,0,0,1-.084.907,1.063,1.063,0,0,1-.991.511M218.575,2.01A3.66,3.66,0,1,0,222.5,5.274a3.655,3.655,0,0,0-3.926-3.263m8.264,15.545a8.251,8.251,0,0,0-16,.035Z" transform="translate(-167.216 0)" fill="#12263f"/>
        <path id="Trazado_1274351" data-name="Trazado 1274351" d="M216.3,208.9a10.17,10.17,0,1,1-8.9,11.465,10.17,10.17,0,0,1,8.9-11.465m.391,1.959a8.178,8.178,0,1,0,8.921,7.376,8.166,8.166,0,0,0-8.921-7.376" transform="translate(-166.117 -167.331)" fill="#12263f"/>
        <path id="Trazado_1274352" data-name="Trazado 1274352" d="M10.83,1.743A10.167,10.167,0,1,1,2.366,13.561,10.179,10.179,0,0,1,10.83,1.743M11.216,3.7a8.177,8.177,0,1,0,9.244,6.869A8.128,8.128,0,0,0,11.216,3.7" transform="translate(-1.775 -1.297)" fill="#12263f"/>
        <path id="Trazado_1274353" data-name="Trazado 1274353" d="M79.694,238.276l-4.371-.012a.825.825,0,0,1-.8-.838l0-15.867a.969.969,0,0,1,1-1.014h3.966a.989.989,0,0,1,.993,1.018l0,15.858a.889.889,0,0,1-.8.853m-1.184-2.082-.008-13.64h-1.99v13.685a3.614,3.614,0,0,0,2-.047" transform="translate(-59.718 -176.726)" fill="#12263f"/>
        <path id="Trazado_1274354" data-name="Trazado 1274354" d="M42.564,255.147l-4.288-.006a.833.833,0,0,1-.8-.836l0-11.9a.827.827,0,0,1,.808-.8h4.173a1.085,1.085,0,0,1,.978,1.19l-.013,11.477c-.069.438-.3.879-.857.878m-1.109-2.069-.011-9.477-2.007,0v9.514a3.8,3.8,0,0,0,2.017-.034" transform="translate(-30.026 -193.598)" fill="#12263f"/>
        <path id="Trazado_1274355" data-name="Trazado 1274355" d="M5.375,271.086.7,271.1c-.368,0-.689-.532-.689-.883L0,262.459a1.051,1.051,0,0,1,1.1-.919l3.793,0a1.035,1.035,0,0,1,1.1,1.044l-.01,7.635c0,.284-.2.871-.6.872m-1.383-2.043-.038-5.482H2.028L2.013,269.1a3.8,3.8,0,0,0,1.98-.057" transform="translate(0 -209.571)" fill="#12263f"/>
        <path id="Trazado_1274356" data-name="Trazado 1274356" d="M120.674,41.924c0,.5-.562.747-.83.8-.347.075-1.042-.161-1.046-.661l-.047-5.548-7.112-.014a1.022,1.022,0,0,1-.972-.894c-.049-.413.233-1.056.787-1.058l8.52-.025a.752.752,0,0,1,.763.81Z" transform="translate(-88.673 -27.668)" fill="#12263f"/>
        <path id="Trazado_1274357" data-name="Trazado 1274357" d="M235.8,120.393a1,1,0,0,1-1.041-1.095,1.07,1.07,0,0,1,1.156-.9l5.126-.018.052-7.351c0-.517.7-.711,1.048-.662a1.021,1.021,0,0,1,.894,1.044l0,7.932a1.141,1.141,0,0,1-1.157,1.055Z" transform="translate(-188.11 -88.434)" fill="#12263f"/>
        <path id="Trazado_1274358" data-name="Trazado 1274358" d="M38.293,152.625l-.062,7.077a.964.964,0,0,1-.842.975c-.392.055-1.061-.147-1.063-.7l-.039-8.359a.884.884,0,0,1,.882-.957l6.317-.014a.979.979,0,0,1,.993.895,1,1,0,0,1-.988,1.08Z" transform="translate(-29.077 -120.716)" fill="#12263f"/>
        <path id="Trazado_1274359" data-name="Trazado 1274359" d="M160.495,247.72l-8.056.023a.952.952,0,0,1-1.009-.871l.038-6.736c0-.5.7-.682,1.056-.625a.97.97,0,0,1,.83.875l.056,5.334,7.108.046a.966.966,0,0,1,.879.826.936.936,0,0,1-.9,1.128" transform="translate(-121.342 -191.914)" fill="#12263f"/>
        <path id="Trazado_1274360" data-name="Trazado 1274360" d="M126.154,119.071a7.321,7.321,0,1,1-6.751,8.1,7.284,7.284,0,0,1,6.751-8.1m.355,1.975a5.33,5.33,0,1,0,.344,10.655,5.382,5.382,0,0,0,5.159-5.476,5.287,5.287,0,0,0-5.5-5.179" transform="translate(-95.644 -95.395)" fill="#12263f"/>
        <path id="Trazado_1274361" data-name="Trazado 1274361" d="M243.7,238.065c-.15.567-.3,1.256-.966,1.339-.836.1-.948-.806-1.178-1.267-1.082-.677-2.4-1.129-2.764-2.595a1.18,1.18,0,0,1,.121-1.122,1.149,1.149,0,0,1,1.186-.287c.415.1.479.59.7,1.024a2.334,2.334,0,0,0,2.87.775,1.148,1.148,0,0,0,.889-.971,1.128,1.128,0,0,0-.888-1.114l-2.342-.609a3.009,3.009,0,0,1-2.333-3.2,3.387,3.387,0,0,1,2.644-2.859A1.353,1.353,0,0,1,242,226a1.034,1.034,0,0,1,1.158-.073c.341.182.442.743.53,1.2a4.2,4.2,0,0,1,2.524,2.22,1.042,1.042,0,0,1-.376,1.285.955.955,0,0,1-1.346-.367,2.009,2.009,0,0,0-2.58-1.065,1.216,1.216,0,0,0-.914,1.021c-.052.588.371.988,1,1.156l2.5.668a2.954,2.954,0,0,1,1.866,3.964c-.433,1.139-1.6,1.6-2.662,2.053" transform="translate(-191.283 -180.925)" fill="#12263f"/>
        <path id="Trazado_1274362" data-name="Trazado 1274362" d="M52.23,35.316a1.078,1.078,0,0,1,.428,1.371.965.965,0,0,1-1.411.386l-2.7-1.666-.026-4.14a.884.884,0,0,1,1.075-.812.971.971,0,0,1,.868,1.019v2.8Z" transform="translate(-38.879 -24.395)" fill="#12263f"/>
        <path id="Trazado_1274363" data-name="Trazado 1274363" d="M25.792,71.672c-.367.349-.727.638-1.134.57a1.086,1.086,0,0,1-.852-.747,1.318,1.318,0,0,1,.468-1.249,1.172,1.172,0,0,1,1.663-.281c.51.459.45,1.141-.144,1.707" transform="translate(-19.047 -55.868)" fill="#12263f"/>
        <path id="Trazado_1274364" data-name="Trazado 1274364" d="M24.436,23.374a1.726,1.726,0,0,1,1.829,1.673.942.942,0,0,1-.862.79,1.864,1.864,0,0,1-1.644-1.554.945.945,0,0,1,.676-.91" transform="translate(-19.039 -18.709)" fill="#12263f"/>
        <path id="Trazado_1274365" data-name="Trazado 1274365" d="M15.572,47.9c.622.03.8.762.721,1.143-.139.639-.69.781-1.323.8-.686.016-1.207-.1-1.367-.788a.975.975,0,0,1,.98-1.2Z" transform="translate(-10.882 -38.341)" fill="#12263f"/>
        <path id="Trazado_1274366" data-name="Trazado 1274366" d="M50.294,80.069a1.562,1.562,0,0,1-.345,1.212,1,1,0,0,1-1.176.125c-.466-.246-.468-.71-.489-1.245-.028-.716.235-1.31.941-1.345.593-.029,1.085.439,1.069,1.253" transform="translate(-38.689 -63.155)" fill="#12263f"/>
        <path id="Trazado_1274367" data-name="Trazado 1274367" d="M81.5,47.856a.937.937,0,0,1,.448,1.273c-.339.828-2.113.783-2.478.143a1.021,1.021,0,0,1,.293-1.38,2.457,2.457,0,0,1,1.736-.036" transform="translate(-63.567 -38.236)" fill="#12263f"/>
        <path id="Trazado_1274368" data-name="Trazado 1274368" d="M71.032,69.681A1.687,1.687,0,0,1,72.681,71.5a.942.942,0,0,1-.878.706,1.9,1.9,0,0,1-1.559-1.651.963.963,0,0,1,.788-.87" transform="translate(-56.285 -55.823)" fill="#12263f"/>
        <path id="Trazado_1274369" data-name="Trazado 1274369" d="M50.282,14.377a1.672,1.672,0,0,1-.306,1.237,1.114,1.114,0,0,1-1.244.128c-.432-.24-.434-.767-.453-1.28-.027-.715.285-1.231.941-1.274.609-.041,1.07.347,1.062,1.19" transform="translate(-38.686 -10.564)" fill="#12263f"/>
        <path id="Trazado_1274370" data-name="Trazado 1274370" d="M72.384,25.18a1.665,1.665,0,0,1-1.178.673.961.961,0,0,1-.923-.767,1.413,1.413,0,0,1,.5-1.22A1.262,1.262,0,0,1,72.3,23.5a1.084,1.084,0,0,1,.079,1.677" transform="translate(-56.303 -18.725)" fill="#12263f"/>
      </g>
    </g>
  </g>
</svg>
